HIERARCHY
ROOT Hips
{
	OFFSET 0.000000 0.000000 0.000000
	CHANNELS 6 Xposition Yposition Zposition Yrotation Xrotation Zrotation
	JOINT Chest
	{
		OFFSET 0.000000 -0.009281 11.569106
		CHANNELS 3 Yrotation Xrotation Zrotation
		JOINT Chest2
		{
			OFFSET -0.000000 0.016865 9.269641
			CHANNELS 3 Yrotation Xrotation Zrotation
			JOINT Chest3
			{
				OFFSET -0.000000 0.000001 8.374491
				CHANNELS 3 Yrotation Xrotation Zrotation
				JOINT Chest4
				{
					OFFSET -0.000000 0.000001 8.374493
					CHANNELS 3 Yrotation Xrotation Zrotation
					JOINT Neck
					{
						OFFSET -0.000000 0.000002 12.152554
						CHANNELS 3 Yrotation Xrotation Zrotation
						JOINT Head
						{
							OFFSET -0.000000 0.040101 7.802319
							CHANNELS 3 Yrotation Xrotation Zrotation
							End Site
							{
								OFFSET -0.000000 0.020947 14.853096
							}
						}
					}
					JOINT RightCollar
					{
						OFFSET 2.894404 0.000001 6.791374
						CHANNELS 3 Yrotation Xrotation Zrotation
						JOINT RightShoulder
						{
							OFFSET 13.574684 0.000001 0.000000
							CHANNELS 3 Yrotation Xrotation Zrotation
							JOINT RightElbow
							{
								OFFSET 23.923903 0.000002 0.000000
								CHANNELS 3 Yrotation Xrotation Zrotation
								JOINT RightWrist
								{
									OFFSET 19.846718 0.012767 0.000000
									CHANNELS 3 Yrotation Xrotation Zrotation
									End Site
									{
										OFFSET 14.973145 0.000001 0.000000
									}
								}
							}
						}
					}
					JOINT LeftCollar
					{
						OFFSET -2.894404 0.000001 6.791374
						CHANNELS 3 Yrotation Xrotation Zrotation
						JOINT LeftShoulder
						{
							OFFSET -13.574684 -0.000001 0.000000
							CHANNELS 3 Yrotation Xrotation Zrotation
							JOINT LeftElbow
							{
								OFFSET -23.923903 -0.000002 0.000000
								CHANNELS 3 Yrotation Xrotation Zrotation
								JOINT LeftWrist
								{
									OFFSET -19.846718 0.012763 0.000000
									CHANNELS 3 Yrotation Xrotation Zrotation
									End Site
									{
										OFFSET -14.973145 -0.000001 0.000000
									}
								}
							}
						}
					}
				}
			}
		}
	}
	JOINT RightHip
	{
		OFFSET 9.469263 0.004643 0.045487
		CHANNELS 3 Yrotation Xrotation Zrotation
		JOINT RightKnee
		{
			OFFSET 0.000000 0.002661 -40.478676
			CHANNELS 3 Yrotation Xrotation Zrotation
			JOINT RightAnkle
			{
				OFFSET 0.000000 0.049106 -35.224068
				CHANNELS 3 Yrotation Xrotation Zrotation
				JOINT RightToe
				{
					OFFSET -0.000001 12.539529 -6.151390
					CHANNELS 3 Yrotation Xrotation Zrotation
					End Site
					{
						OFFSET -0.000001 5.044994 -1.291870
					}
				}
			}
		}
	}
	JOINT LeftHip
	{
		OFFSET -9.469263 0.004641 0.045487
		CHANNELS 3 Yrotation Xrotation Zrotation
		JOINT LeftKnee
		{
			OFFSET 0.000000 0.002661 -40.478676
			CHANNELS 3 Yrotation Xrotation Zrotation
			JOINT LeftAnkle
			{
				OFFSET 0.000000 0.049106 -35.224068
				CHANNELS 3 Yrotation Xrotation Zrotation
				JOINT LeftToe
				{
					OFFSET -0.000001 12.539529 -6.151390
					CHANNELS 3 Yrotation Xrotation Zrotation
					End Site
					{
						OFFSET -0.000001 5.044994 -1.291870
					}
				}
			}
		}
	}
}
MOTION
Frames: 16
Frame Time: 0.016667
14.415769 -13.651718 81.015594 0.134788 0.903644 -138.726483 -2.545887 -4.382640 1.845334 -1.108192 -1.989727 0.825553 -1.108191 -1.989727 0.825554 -0.828374 -1.493801 0.615496 -4.865582 -11.898036 6.471664 -6.528137 14.164000 10.291786 11.118812 9.104950 1.206718 44.663754 -10.508253 -15.973323 -33.194856 -67.757007 92.862842 -53.817205 44.063193 43.678684 -6.754129 9.269200 1.491831 -37.057963 -3.885637 9.921053 -32.820708 -72.147247 -34.772592 29.550363 19.235565 -72.920643 9.955212 -13.003457 -0.324694 2.070302 2.385104 5.152331 -1.130502 7.141577 13.841034 -1.594793 0.370281 0.005060 -14.009499 6.358306 -9.057843 -2.824952 4.532681 16.774815 11.984601 -13.236564 0.196538 0.355719 0.204782 0.141202 
14.541489 -13.880990 81.060379 0.135907 0.949360 -138.808446 -2.553342 -4.361218 1.833110 -1.116284 -1.992640 0.832213 -1.116283 -1.992640 0.832208 -0.834415 -1.496009 0.620459 -4.839755 -11.833675 6.539068 -6.447054 14.281662 10.432606 11.100038 9.049681 1.200723 44.715954 -10.456198 -15.985011 -33.118706 -67.748155 92.756278 -53.789604 44.047285 43.690289 -6.746455 9.230847 1.534914 -37.090161 -3.737798 9.969408 -32.633052 -72.150369 -34.957919 29.510693 19.157171 -72.909298 9.873432 -13.116528 -0.435607 2.083265 2.371155 5.215035 -0.513006 6.908416 14.071039 -1.780744 0.492786 0.016970 -13.968755 6.227853 -9.000968 -2.853041 4.485725 16.787311 11.909885 -12.999339 0.202102 0.293912 0.157369 0.170004 
14.673492 -14.129502 81.107857 0.134652 0.967677 -138.899068 -2.549064 -4.347937 1.824953 -1.120253 -1.991950 0.835348 -1.120252 -1.991950 0.835351 -0.837384 -1.495503 0.622798 -4.804187 -11.775002 6.600772 -6.349855 14.388272 10.566852 11.079221 8.983992 1.205503 44.745420 -10.419356 -15.973816 -33.116954 -67.760975 92.738690 -53.785144 44.039598 43.677233 -6.744394 9.180001 1.563463 -37.119298 -3.619280 10.029711 -32.410276 -72.150430 -35.183343 29.482979 19.093837 -72.873474 9.813612 -13.258424 -0.547638 2.120923 2.348568 5.323317 0.097841 6.633341 14.237026 -1.960026 0.624429 0.027219 -13.904514 6.057489 -8.896562 -2.883013 4.452990 16.783568 11.865134 -12.745693 0.205224 0.221549 0.115589 0.178058 
14.802961 -14.404181 81.155411 0.138954 0.974035 -138.972083 -2.536310 -4.327848 1.807916 -1.121386 -1.986916 0.836461 -1.121386 -1.986915 0.836458 -0.838236 -1.491731 0.623632 -4.755693 -11.731260 6.646836 -6.235181 14.466665 10.676713 11.061953 8.939162 1.225336 44.757014 -10.416702 -15.977735 -33.025679 -67.771439 92.648552 -53.760941 44.021324 43.681040 -6.740733 9.136474 1.581671 -37.144983 -3.541752 10.095883 -32.228876 -72.152684 -35.375561 29.451318 19.016377 -72.832049 9.762540 -13.397735 -0.688341 2.149772 2.300980 5.411412 0.739836 6.307172 14.583128 -2.125668 0.756415 0.044913 -13.825048 5.861265 -8.768641 -2.913285 4.427770 16.750626 11.845475 -12.462526 0.217008 0.139395 0.067136 0.171514 
14.938734 -14.684828 81.201439 0.148822 0.983512 -139.031970 -2.527814 -4.296574 1.790585 -1.123236 -1.979685 0.836084 -1.123235 -1.979684 0.836083 -0.839635 -1.486311 0.623360 -4.693274 -11.701028 6.672643 -6.103114 14.519497 10.753732 11.055372 8.899652 1.232351 44.745249 -10.440241 -15.963016 -32.968241 -67.798486 92.600802 -53.775299 44.016604 43.650718 -6.726338 9.097990 1.592961 -37.162766 -3.483595 10.118714 -32.205281 -72.174500 -35.415009 29.436182 18.952175 -72.779354 9.764843 -13.518573 -0.873063 2.148903 2.213196 5.419887 1.410150 6.002267 14.781677 -2.281404 0.884422 0.049478 -13.752987 5.662715 -8.640593 -2.931550 4.402165 16.761318 11.846730 -12.157301 0.182598 0.062785 0.027287 0.182105 
15.061629 -14.989327 81.244667 0.165928 0.980855 -139.064195 -2.509397 -4.258967 1.760829 -1.125338 -1.971908 0.837173 -1.125340 -1.971909 0.837173 -0.841220 -1.480481 0.624184 -4.620758 -11.684919 6.677765 -5.961272 14.545858 10.795326 11.047497 8.841395 1.235006 44.723816 -10.452314 -15.929453 -32.914439 -67.832262 92.551358 -53.779018 44.011519 43.638178 -6.713321 9.036831 1.585477 -37.172594 -3.427704 10.087886 -32.303936 -72.192600 -35.329645 29.422689 18.912469 -72.735654 9.770757 -13.619118 -1.093746 2.145514 2.077177 5.371128 2.092509 5.660049 15.205261 -2.409287 1.005362 0.067320 -13.661535 5.453699 -8.517903 -2.952517 4.368564 16.828582 11.870552 -11.797373 0.125488 -0.013390 -0.027138 0.182619 
15.187556 -15.299706 81.285156 0.183060 0.979806 -139.088128 -2.496256 -4.209569 1.729889 -1.127815 -1.961222 0.838092 -1.127815 -1.961223 0.838101 -0.843090 -1.472473 0.624894 -4.542965 -11.680059 6.670720 -5.815123 14.551219 10.815739 11.032525 8.754408 1.237174 44.705507 -10.445925 -15.880463 -32.801020 -67.871037 92.453611 -53.767495 43.995916 43.639315 -6.712916 8.965572 1.558733 -37.166761 -3.397512 10.036070 -32.432993 -72.185524 -35.214297 29.412010 18.893026 -72.707965 9.819496 -13.709707 -1.358491 2.142249 1.912138 5.365764 2.724307 5.319449 15.429619 -2.503017 1.132171 0.075029 -13.564927 5.240524 -8.322467 -2.995876 4.333703 16.875786 11.911794 -11.408770 0.027473 -0.072138 -0.074407 0.200327 
15.315231 -15.632969 81.323898 0.136035 0.964165 -138.992369 -2.516711 -4.201230 1.588690 -1.128566 -1.948266 0.839207 -1.128566 -1.948267 0.839211 -0.843668 -1.462759 0.625748 -4.466107 -11.685006 6.659519 -5.673041 14.538459 10.827590 11.013873 8.649570 1.235550 44.688469 -10.454570 -15.810660 -32.729471 -67.930548 92.389988 -53.798446 44.004173 43.609648 -6.726280 8.884693 1.519631 -37.158333 -3.395716 10.008570 -32.498078 -72.186582 -35.157330 29.397117 18.886588 -72.693451 9.810284 -13.858528 -1.762950 2.182607 1.743019 5.416507 3.312933 4.959855 15.765883 -2.557121 1.241885 0.072532 -13.503842 4.967578 -8.112609 -3.069921 4.248495 16.822689 11.947835 -10.990525 -0.063178 -0.113949 -0.103449 0.229262 
15.438405 -15.979425 81.361641 0.129938 0.936576 -138.972534 -2.507045 -4.152895 1.528750 -1.128011 -1.930587 0.837494 -1.128011 -1.930587 0.837500 -0.843284 -1.449495 0.624495 -4.397283 -11.701697 6.652344 -5.545223 14.504200 10.843405 10.997255 8.512216 1.253514 44.679064 -10.475722 -15.729215 -32.530118 -67.973401 92.194051 -53.804293 44.007940 43.602244 -6.727289 8.744759 1.503664 -37.170388 -3.381075 9.960918 -32.552053 -72.178967 -35.106083 29.393323 18.924615 -72.670638 9.855125 -13.980959 -2.085331 2.228896 1.557649 5.505874 3.751609 4.498161 16.092829 -2.540849 1.399852 0.093963 -13.403142 4.715383 -7.807150 -3.135757 4.169034 16.735859 12.002784 -10.537200 -0.088026 -0.169906 -0.147910 0.218390 
15.563342 -16.339827 81.397224 0.122112 0.906295 -138.934503 -2.499188 -4.101365 1.467055 -1.128382 -1.909653 0.835945 -1.128381 -1.909654 0.835947 -0.843596 -1.433794 0.623377 -4.334548 -11.728036 6.645319 -5.429549 14.452323 10.856604 10.976390 8.375073 1.246251 44.679727 -10.510194 -15.634796 -32.311713 -68.008036 91.967848 -53.795994 44.004679 43.605116 -6.725061 8.597942 1.482811 -37.181248 -3.357993 9.913735 -32.698677 -72.167246 -34.968352 29.399883 18.967662 -72.652654 9.912344 -14.107968 -2.361263 2.301905 1.366163 5.646206 4.089763 4.067706 16.060254 -2.473102 1.547327 0.121346 -13.303804 4.445314 -7.510286 -3.206651 4.105503 16.650051 12.103588 -10.090728 -0.100241 -0.246869 -0.175843 0.195015 
15.679212 -16.722378 81.432045 0.123699 0.879940 -138.858115 -2.485224 -4.040422 1.387457 -1.133113 -1.886036 0.834674 -1.133114 -1.886038 0.834667 -0.847183 -1.416084 0.622455 -4.271549 -11.767753 6.633465 -5.316191 14.375699 10.860335 10.964110 8.267126 1.234577 44.680929 -10.520702 -15.570340 -32.235996 -68.057699 91.867185 -53.798794 44.003979 43.595998 -6.716597 8.493327 1.449187 -37.188474 -3.333719 9.895929 -32.933342 -72.163537 -34.748642 29.401874 18.975085 -72.631139 9.986663 -14.213911 -2.583990 2.376406 1.166623 5.803875 4.242410 3.521469 16.160492 -2.323882 1.736507 0.182379 -13.188033 4.164691 -7.272209 -3.280084 4.060991 16.607707 12.217906 -9.638850 -0.115313 -0.327013 -0.204584 0.151544 
15.796918 -17.114653 81.466995 0.108011 0.879142 -138.741032 -2.492846 -3.969668 1.281377 -1.142403 -1.862730 0.832113 -1.142403 -1.862729 0.832118 -0.854191 -1.398612 0.620549 -4.212441 -11.817922 6.620374 -5.211433 14.279899 10.859703 10.951732 8.197949 1.222564 44.682811 -10.518519 -15.530479 -32.155100 -68.115646 91.756802 -53.766580 43.983526 43.613391 -6.703126 8.412416 1.410524 -37.192009 -3.285346 9.893615 -33.192950 -72.175470 -34.516043 29.397284 18.973678 -72.591237 10.078381 -14.305154 -2.758905 2.438693 0.953826 5.955401 4.299562 2.964795 16.116741 -2.159346 1.913091 0.239214 -13.088229 3.872620 -7.096735 -3.367523 4.016671 16.565352 12.296272 -9.178589 -0.127137 -0.372166 -0.230033 0.124996 
15.914713 -17.518019 81.500580 0.080049 0.886719 -138.649616 -2.517847 -3.893412 1.209283 -1.152325 -1.836339 0.833693 -1.152325 -1.836339 0.833699 -0.861665 -1.378834 0.621758 -4.160954 -11.880468 6.608647 -5.121398 14.161490 10.858021 10.937681 8.146071 1.203796 44.680755 -10.508846 -15.511845 -32.057206 -68.182473 91.634583 -53.701433 43.942005 43.655946 -6.690112 8.319568 1.378309 -37.189625 -3.218794 9.887225 -33.437082 -72.195291 -34.312415 29.386967 18.954490 -72.548821 10.170020 -14.384295 -2.904592 2.463719 0.702643 5.952415 4.387810 2.418205 16.107116 -2.024073 2.051461 0.304061 -12.992725 3.592947 -6.909285 -3.456957 3.957736 16.539571 12.351484 -8.724889 -0.101713 -0.404000 -0.242700 0.059269 
16.039244 -17.915625 81.532280 0.050083 0.915620 -138.590358 -2.567600 -3.803352 1.177528 -1.162971 -1.803459 0.845492 -1.162972 -1.803460 0.845493 -0.869663 -1.354212 0.630636 -4.114283 -11.956220 6.596502 -5.041537 14.018871 10.853050 10.929091 8.091647 1.187691 44.684945 -10.477174 -15.520526 -32.008415 -68.273847 91.560093 -53.663451 43.919612 43.674726 -6.690249 8.256672 1.331454 -37.164774 -3.175658 9.908039 -33.648992 -72.204539 -34.143808 29.385953 18.936232 -72.497766 10.239086 -14.437698 -3.081812 2.474771 0.421370 5.852218 4.554124 1.867431 16.227725 -1.954230 2.141529 0.351261 -12.928858 3.334073 -6.716392 -3.521047 3.886424 16.552350 12.368306 -8.262972 -0.078211 -0.413822 -0.252707 -0.021215 
16.169754 -18.314213 81.566071 0.015023 0.923037 -138.550756 -2.614112 -3.719419 1.167850 -1.169638 -1.768515 0.865125 -1.169638 -1.768515 0.865129 -0.874658 -1.328052 0.645409 -4.078713 -12.042951 6.589431 -4.981391 13.856361 10.852685 10.923109 8.020416 1.173686 44.696546 -10.450129 -15.539456 -31.907806 -68.376648 91.440756 -53.634228 43.915265 43.700544 -6.713660 8.209577 1.276006 -37.127836 -3.120008 9.967661 -33.797115 -72.213391 -34.020397 29.348182 18.916692 -72.445289 10.275006 -14.493916 -3.333991 2.523938 0.098443 5.741102 4.762146 1.284974 16.537927 -1.937558 2.204858 0.386658 -12.837839 3.055538 -6.462802 -3.604333 3.811249 16.481636 12.346969 -7.813300 -0.051451 -0.403197 -0.257783 -0.073623 
16.311451 -18.699791 81.604057 -0.010712 0.940032 -138.502426 -2.668992 -3.611543 1.150052 -1.170800 -1.732515 0.893766 -1.170801 -1.732516 0.893770 -0.875501 -1.301108 0.666952 -4.058048 -12.146508 6.587135 -4.948648 13.663350 10.854632 10.924159 7.947933 1.181690 44.712983 -10.425863 -15.590434 -31.738393 -68.486081 91.265473 -53.623689 43.926722 43.720792 -6.733451 8.121044 1.231755 -37.109367 -3.007576 10.022457 -33.902535 -72.216765 -33.916903 29.292950 18.851822 -72.411555 10.312485 -14.517152 -3.727245 2.579613 -0.270456 5.638514 5.070389 0.767188 16.750984 -1.973257 2.217659 0.384927 -12.729881 2.789775 -6.127199 -3.719550 3.713265 16.232216 12.289043 -7.376792 -0.014238 -0.371937 -0.257559 -0.073641 
